<mxfile host="65bd71144e">
    <diagram id="2SDWXR31MCw6WZbOXWfc" name="Page-1">
        <mxGraphModel dx="439" dy="1653" grid="1" gridSize="10" guides="1" tooltips="1" connect="1" arrows="1" fold="1" page="1" pageScale="1" pageWidth="850" pageHeight="1100" math="0" shadow="0">
            <root>
                <mxCell id="0"/>
                <mxCell id="1" parent="0"/>
                <mxCell id="1YMcYzVdeeYM0YwtyNEZ-6" value="CourcesÂ " style="swimlane;fontStyle=0;childLayout=stackLayout;horizontal=1;startSize=40;fillColor=none;horizontalStack=0;resizeParent=1;resizeParentMax=0;resizeLast=0;collapsible=1;marginBottom=0;" parent="1" vertex="1">
                    <mxGeometry x="20" y="-110" width="160" height="318" as="geometry">
                        <mxRectangle x="350" y="-20" width="50" height="26" as="alternateBounds"/>
                    </mxGeometry>
                </mxCell>
                <mxCell id="1YMcYzVdeeYM0YwtyNEZ-7" value="id" style="text;strokeColor=none;fillColor=none;align=left;verticalAlign=top;spacingLeft=4;spacingRight=4;overflow=hidden;rotatable=0;points=[[0,0.5],[1,0.5]];portConstraint=eastwest;" parent="1YMcYzVdeeYM0YwtyNEZ-6" vertex="1">
                    <mxGeometry y="40" width="160" height="40" as="geometry"/>
                </mxCell>
                <mxCell id="1YMcYzVdeeYM0YwtyNEZ-11" value="title" style="text;strokeColor=none;fillColor=none;align=left;verticalAlign=top;spacingLeft=4;spacingRight=4;overflow=hidden;rotatable=0;points=[[0,0.5],[1,0.5]];portConstraint=eastwest;" parent="1YMcYzVdeeYM0YwtyNEZ-6" vertex="1">
                    <mxGeometry y="80" width="160" height="34" as="geometry"/>
                </mxCell>
                <mxCell id="1YMcYzVdeeYM0YwtyNEZ-12" value="price" style="text;strokeColor=none;fillColor=none;align=left;verticalAlign=top;spacingLeft=4;spacingRight=4;overflow=hidden;rotatable=0;points=[[0,0.5],[1,0.5]];portConstraint=eastwest;" parent="1YMcYzVdeeYM0YwtyNEZ-6" vertex="1">
                    <mxGeometry y="114" width="160" height="34" as="geometry"/>
                </mxCell>
                <mxCell id="1YMcYzVdeeYM0YwtyNEZ-8" value="capacity" style="text;strokeColor=none;fillColor=none;align=left;verticalAlign=top;spacingLeft=4;spacingRight=4;overflow=hidden;rotatable=0;points=[[0,0.5],[1,0.5]];portConstraint=eastwest;" parent="1YMcYzVdeeYM0YwtyNEZ-6" vertex="1">
                    <mxGeometry y="148" width="160" height="34" as="geometry"/>
                </mxCell>
                <mxCell id="1YMcYzVdeeYM0YwtyNEZ-16" value="syllabus" style="text;strokeColor=none;fillColor=none;align=left;verticalAlign=top;spacingLeft=4;spacingRight=4;overflow=hidden;rotatable=0;points=[[0,0.5],[1,0.5]];portConstraint=eastwest;" parent="1YMcYzVdeeYM0YwtyNEZ-6" vertex="1">
                    <mxGeometry y="182" width="160" height="34" as="geometry"/>
                </mxCell>
                <mxCell id="1YMcYzVdeeYM0YwtyNEZ-14" value="enrolled_students" style="text;strokeColor=none;fillColor=none;align=left;verticalAlign=top;spacingLeft=4;spacingRight=4;overflow=hidden;rotatable=0;points=[[0,0.5],[1,0.5]];portConstraint=eastwest;" parent="1YMcYzVdeeYM0YwtyNEZ-6" vertex="1">
                    <mxGeometry y="216" width="160" height="34" as="geometry"/>
                </mxCell>
                <mxCell id="1YMcYzVdeeYM0YwtyNEZ-15" value="image_url" style="text;strokeColor=none;fillColor=none;align=left;verticalAlign=top;spacingLeft=4;spacingRight=4;overflow=hidden;rotatable=0;points=[[0,0.5],[1,0.5]];portConstraint=eastwest;" parent="1YMcYzVdeeYM0YwtyNEZ-6" vertex="1">
                    <mxGeometry y="250" width="160" height="34" as="geometry"/>
                </mxCell>
                <mxCell id="1YMcYzVdeeYM0YwtyNEZ-13" value="description" style="text;strokeColor=none;fillColor=none;align=left;verticalAlign=top;spacingLeft=4;spacingRight=4;overflow=hidden;rotatable=0;points=[[0,0.5],[1,0.5]];portConstraint=eastwest;" parent="1YMcYzVdeeYM0YwtyNEZ-6" vertex="1">
                    <mxGeometry y="284" width="160" height="34" as="geometry"/>
                </mxCell>
                <mxCell id="1YMcYzVdeeYM0YwtyNEZ-17" value="Student" style="swimlane;fontStyle=0;childLayout=stackLayout;horizontal=1;startSize=40;fillColor=none;horizontalStack=0;resizeParent=1;resizeParentMax=0;resizeLast=0;collapsible=1;marginBottom=0;" parent="1" vertex="1">
                    <mxGeometry x="500" y="-100" width="160" height="244" as="geometry">
                        <mxRectangle x="350" y="-20" width="50" height="26" as="alternateBounds"/>
                    </mxGeometry>
                </mxCell>
                <mxCell id="1YMcYzVdeeYM0YwtyNEZ-19" value="user" style="text;strokeColor=none;fillColor=none;align=left;verticalAlign=top;spacingLeft=4;spacingRight=4;overflow=hidden;rotatable=0;points=[[0,0.5],[1,0.5]];portConstraint=eastwest;" parent="1YMcYzVdeeYM0YwtyNEZ-17" vertex="1">
                    <mxGeometry y="40" width="160" height="34" as="geometry"/>
                </mxCell>
                <mxCell id="1YMcYzVdeeYM0YwtyNEZ-20" value="phone_number" style="text;strokeColor=none;fillColor=none;align=left;verticalAlign=top;spacingLeft=4;spacingRight=4;overflow=hidden;rotatable=0;points=[[0,0.5],[1,0.5]];portConstraint=eastwest;" parent="1YMcYzVdeeYM0YwtyNEZ-17" vertex="1">
                    <mxGeometry y="74" width="160" height="34" as="geometry"/>
                </mxCell>
                <mxCell id="1YMcYzVdeeYM0YwtyNEZ-22" value="cources_enrolled" style="text;strokeColor=none;fillColor=none;align=left;verticalAlign=top;spacingLeft=4;spacingRight=4;overflow=hidden;rotatable=0;points=[[0,0.5],[1,0.5]];portConstraint=eastwest;" parent="1YMcYzVdeeYM0YwtyNEZ-17" vertex="1">
                    <mxGeometry y="108" width="160" height="34" as="geometry"/>
                </mxCell>
                <mxCell id="1YMcYzVdeeYM0YwtyNEZ-23" value="is_approved" style="text;strokeColor=none;fillColor=none;align=left;verticalAlign=top;spacingLeft=4;spacingRight=4;overflow=hidden;rotatable=0;points=[[0,0.5],[1,0.5]];portConstraint=eastwest;" parent="1YMcYzVdeeYM0YwtyNEZ-17" vertex="1">
                    <mxGeometry y="142" width="160" height="34" as="geometry"/>
                </mxCell>
                <mxCell id="1YMcYzVdeeYM0YwtyNEZ-24" value="fees_pending" style="text;strokeColor=none;fillColor=none;align=left;verticalAlign=top;spacingLeft=4;spacingRight=4;overflow=hidden;rotatable=0;points=[[0,0.5],[1,0.5]];portConstraint=eastwest;" parent="1YMcYzVdeeYM0YwtyNEZ-17" vertex="1">
                    <mxGeometry y="176" width="160" height="34" as="geometry"/>
                </mxCell>
                <mxCell id="1YMcYzVdeeYM0YwtyNEZ-25" value="date_joined" style="text;strokeColor=none;fillColor=none;align=left;verticalAlign=top;spacingLeft=4;spacingRight=4;overflow=hidden;rotatable=0;points=[[0,0.5],[1,0.5]];portConstraint=eastwest;" parent="1YMcYzVdeeYM0YwtyNEZ-17" vertex="1">
                    <mxGeometry y="210" width="160" height="34" as="geometry"/>
                </mxCell>
                <mxCell id="1YMcYzVdeeYM0YwtyNEZ-26" value="EnrolledCourses" style="swimlane;fontStyle=0;childLayout=stackLayout;horizontal=1;startSize=40;fillColor=none;horizontalStack=0;resizeParent=1;resizeParentMax=0;resizeLast=0;collapsible=1;marginBottom=0;" parent="1" vertex="1">
                    <mxGeometry x="280" y="-70" width="160" height="142" as="geometry">
                        <mxRectangle x="350" y="-20" width="50" height="26" as="alternateBounds"/>
                    </mxGeometry>
                </mxCell>
                <mxCell id="1YMcYzVdeeYM0YwtyNEZ-27" value="user" style="text;strokeColor=none;fillColor=none;align=left;verticalAlign=top;spacingLeft=4;spacingRight=4;overflow=hidden;rotatable=0;points=[[0,0.5],[1,0.5]];portConstraint=eastwest;" parent="1YMcYzVdeeYM0YwtyNEZ-26" vertex="1">
                    <mxGeometry y="40" width="160" height="34" as="geometry"/>
                </mxCell>
                <mxCell id="1YMcYzVdeeYM0YwtyNEZ-28" value="cource" style="text;strokeColor=none;fillColor=none;align=left;verticalAlign=top;spacingLeft=4;spacingRight=4;overflow=hidden;rotatable=0;points=[[0,0.5],[1,0.5]];portConstraint=eastwest;" parent="1YMcYzVdeeYM0YwtyNEZ-26" vertex="1">
                    <mxGeometry y="74" width="160" height="34" as="geometry"/>
                </mxCell>
                <mxCell id="1YMcYzVdeeYM0YwtyNEZ-32" value="date_enrolled" style="text;strokeColor=none;fillColor=none;align=left;verticalAlign=top;spacingLeft=4;spacingRight=4;overflow=hidden;rotatable=0;points=[[0,0.5],[1,0.5]];portConstraint=eastwest;" parent="1YMcYzVdeeYM0YwtyNEZ-26" vertex="1">
                    <mxGeometry y="108" width="160" height="34" as="geometry"/>
                </mxCell>
                <mxCell id="1YMcYzVdeeYM0YwtyNEZ-34" style="edgeStyle=orthogonalEdgeStyle;rounded=0;orthogonalLoop=1;jettySize=auto;html=1;exitX=1;exitY=0.5;exitDx=0;exitDy=0;entryX=0;entryY=0.5;entryDx=0;entryDy=0;" parent="1" source="1YMcYzVdeeYM0YwtyNEZ-27" target="1YMcYzVdeeYM0YwtyNEZ-19" edge="1">
                    <mxGeometry relative="1" as="geometry"/>
                </mxCell>
                <mxCell id="1YMcYzVdeeYM0YwtyNEZ-35" style="edgeStyle=orthogonalEdgeStyle;rounded=0;orthogonalLoop=1;jettySize=auto;html=1;exitX=0;exitY=0.5;exitDx=0;exitDy=0;entryX=1;entryY=0.5;entryDx=0;entryDy=0;" parent="1" source="1YMcYzVdeeYM0YwtyNEZ-28" target="1YMcYzVdeeYM0YwtyNEZ-7" edge="1">
                    <mxGeometry relative="1" as="geometry"/>
                </mxCell>
                <mxCell id="2" value="SiteInfo" style="swimlane;fontStyle=0;childLayout=stackLayout;horizontal=1;startSize=40;fillColor=none;horizontalStack=0;resizeParent=1;resizeParentMax=0;resizeLast=0;collapsible=1;marginBottom=0;" vertex="1" parent="1">
                    <mxGeometry x="240" y="660" width="160" height="278" as="geometry">
                        <mxRectangle x="350" y="-20" width="50" height="26" as="alternateBounds"/>
                    </mxGeometry>
                </mxCell>
                <mxCell id="3" value="name" style="text;strokeColor=none;fillColor=none;align=left;verticalAlign=top;spacingLeft=4;spacingRight=4;overflow=hidden;rotatable=0;points=[[0,0.5],[1,0.5]];portConstraint=eastwest;" vertex="1" parent="2">
                    <mxGeometry y="40" width="160" height="34" as="geometry"/>
                </mxCell>
                <mxCell id="45" value="social_media" style="text;strokeColor=none;fillColor=none;align=left;verticalAlign=top;spacingLeft=4;spacingRight=4;overflow=hidden;rotatable=0;points=[[0,0.5],[1,0.5]];portConstraint=eastwest;" vertex="1" parent="2">
                    <mxGeometry y="74" width="160" height="34" as="geometry"/>
                </mxCell>
                <mxCell id="9" value="owner" style="text;strokeColor=none;fillColor=none;align=left;verticalAlign=top;spacingLeft=4;spacingRight=4;overflow=hidden;rotatable=0;points=[[0,0.5],[1,0.5]];portConstraint=eastwest;" vertex="1" parent="2">
                    <mxGeometry y="108" width="160" height="34" as="geometry"/>
                </mxCell>
                <mxCell id="13" value="timings" style="text;strokeColor=none;fillColor=none;align=left;verticalAlign=top;spacingLeft=4;spacingRight=4;overflow=hidden;rotatable=0;points=[[0,0.5],[1,0.5]];portConstraint=eastwest;" vertex="1" parent="2">
                    <mxGeometry y="142" width="160" height="34" as="geometry"/>
                </mxCell>
                <mxCell id="14" value="cources" style="text;strokeColor=none;fillColor=none;align=left;verticalAlign=top;spacingLeft=4;spacingRight=4;overflow=hidden;rotatable=0;points=[[0,0.5],[1,0.5]];portConstraint=eastwest;" vertex="1" parent="2">
                    <mxGeometry y="176" width="160" height="34" as="geometry"/>
                </mxCell>
                <mxCell id="15" value="stories" style="text;strokeColor=none;fillColor=none;align=left;verticalAlign=top;spacingLeft=4;spacingRight=4;overflow=hidden;rotatable=0;points=[[0,0.5],[1,0.5]];portConstraint=eastwest;" vertex="1" parent="2">
                    <mxGeometry y="210" width="160" height="34" as="geometry"/>
                </mxCell>
                <mxCell id="46" value="address" style="text;strokeColor=none;fillColor=none;align=left;verticalAlign=top;spacingLeft=4;spacingRight=4;overflow=hidden;rotatable=0;points=[[0,0.5],[1,0.5]];portConstraint=eastwest;" vertex="1" parent="2">
                    <mxGeometry y="244" width="160" height="34" as="geometry"/>
                </mxCell>
                <mxCell id="17" value="SocialMediaInfo" style="swimlane;fontStyle=0;childLayout=stackLayout;horizontal=1;startSize=40;fillColor=none;horizontalStack=0;resizeParent=1;resizeParentMax=0;resizeLast=0;collapsible=1;marginBottom=0;" vertex="1" parent="1">
                    <mxGeometry x="20" y="460" width="160" height="278" as="geometry">
                        <mxRectangle x="350" y="-20" width="50" height="26" as="alternateBounds"/>
                    </mxGeometry>
                </mxCell>
                <mxCell id="19" value="id" style="text;strokeColor=none;fillColor=none;align=left;verticalAlign=top;spacingLeft=4;spacingRight=4;overflow=hidden;rotatable=0;points=[[0,0.5],[1,0.5]];portConstraint=eastwest;" vertex="1" parent="17">
                    <mxGeometry y="40" width="160" height="34" as="geometry"/>
                </mxCell>
                <mxCell id="50" value="gmail" style="text;strokeColor=none;fillColor=none;align=left;verticalAlign=top;spacingLeft=4;spacingRight=4;overflow=hidden;rotatable=0;points=[[0,0.5],[1,0.5]];portConstraint=eastwest;" vertex="1" parent="17">
                    <mxGeometry y="74" width="160" height="34" as="geometry"/>
                </mxCell>
                <mxCell id="20" value="facebook" style="text;strokeColor=none;fillColor=none;align=left;verticalAlign=top;spacingLeft=4;spacingRight=4;overflow=hidden;rotatable=0;points=[[0,0.5],[1,0.5]];portConstraint=eastwest;" vertex="1" parent="17">
                    <mxGeometry y="108" width="160" height="34" as="geometry"/>
                </mxCell>
                <mxCell id="21" value="whatsapp" style="text;strokeColor=none;fillColor=none;align=left;verticalAlign=top;spacingLeft=4;spacingRight=4;overflow=hidden;rotatable=0;points=[[0,0.5],[1,0.5]];portConstraint=eastwest;" vertex="1" parent="17">
                    <mxGeometry y="142" width="160" height="34" as="geometry"/>
                </mxCell>
                <mxCell id="22" value="instagram" style="text;strokeColor=none;fillColor=none;align=left;verticalAlign=top;spacingLeft=4;spacingRight=4;overflow=hidden;rotatable=0;points=[[0,0.5],[1,0.5]];portConstraint=eastwest;" vertex="1" parent="17">
                    <mxGeometry y="176" width="160" height="34" as="geometry"/>
                </mxCell>
                <mxCell id="23" value="twitter" style="text;strokeColor=none;fillColor=none;align=left;verticalAlign=top;spacingLeft=4;spacingRight=4;overflow=hidden;rotatable=0;points=[[0,0.5],[1,0.5]];portConstraint=eastwest;" vertex="1" parent="17">
                    <mxGeometry y="210" width="160" height="34" as="geometry"/>
                </mxCell>
                <mxCell id="24" value="linkdln" style="text;strokeColor=none;fillColor=none;align=left;verticalAlign=top;spacingLeft=4;spacingRight=4;overflow=hidden;rotatable=0;points=[[0,0.5],[1,0.5]];portConstraint=eastwest;" vertex="1" parent="17">
                    <mxGeometry y="244" width="160" height="34" as="geometry"/>
                </mxCell>
                <mxCell id="31" value="AddressInfo" style="swimlane;fontStyle=0;childLayout=stackLayout;horizontal=1;startSize=40;fillColor=none;horizontalStack=0;resizeParent=1;resizeParentMax=0;resizeLast=0;collapsible=1;marginBottom=0;" vertex="1" parent="1">
                    <mxGeometry x="20" y="900" width="160" height="142" as="geometry">
                        <mxRectangle x="350" y="-20" width="50" height="26" as="alternateBounds"/>
                    </mxGeometry>
                </mxCell>
                <mxCell id="40" value="id" style="text;strokeColor=none;fillColor=none;align=left;verticalAlign=top;spacingLeft=4;spacingRight=4;overflow=hidden;rotatable=0;points=[[0,0.5],[1,0.5]];portConstraint=eastwest;" vertex="1" parent="31">
                    <mxGeometry y="40" width="160" height="34" as="geometry"/>
                </mxCell>
                <mxCell id="48" value="address" style="text;strokeColor=none;fillColor=none;align=left;verticalAlign=top;spacingLeft=4;spacingRight=4;overflow=hidden;rotatable=0;points=[[0,0.5],[1,0.5]];portConstraint=eastwest;" vertex="1" parent="31">
                    <mxGeometry y="74" width="160" height="34" as="geometry"/>
                </mxCell>
                <mxCell id="41" value="google_map_location" style="text;strokeColor=none;fillColor=none;align=left;verticalAlign=top;spacingLeft=4;spacingRight=4;overflow=hidden;rotatable=0;points=[[0,0.5],[1,0.5]];portConstraint=eastwest;" vertex="1" parent="31">
                    <mxGeometry y="108" width="160" height="34" as="geometry"/>
                </mxCell>
                <mxCell id="54" value="Stories" style="swimlane;fontStyle=0;childLayout=stackLayout;horizontal=1;startSize=40;fillColor=none;horizontalStack=0;resizeParent=1;resizeParentMax=0;resizeLast=0;collapsible=1;marginBottom=0;" vertex="1" parent="1">
                    <mxGeometry x="450" y="494" width="160" height="278" as="geometry">
                        <mxRectangle x="350" y="-20" width="50" height="26" as="alternateBounds"/>
                    </mxGeometry>
                </mxCell>
                <mxCell id="55" value="id" style="text;strokeColor=none;fillColor=none;align=left;verticalAlign=top;spacingLeft=4;spacingRight=4;overflow=hidden;rotatable=0;points=[[0,0.5],[1,0.5]];portConstraint=eastwest;" vertex="1" parent="54">
                    <mxGeometry y="40" width="160" height="34" as="geometry"/>
                </mxCell>
                <mxCell id="56" value="sender_name" style="text;strokeColor=none;fillColor=none;align=left;verticalAlign=top;spacingLeft=4;spacingRight=4;overflow=hidden;rotatable=0;points=[[0,0.5],[1,0.5]];portConstraint=eastwest;" vertex="1" parent="54">
                    <mxGeometry y="74" width="160" height="34" as="geometry"/>
                </mxCell>
                <mxCell id="57" value="sender_email" style="text;strokeColor=none;fillColor=none;align=left;verticalAlign=top;spacingLeft=4;spacingRight=4;overflow=hidden;rotatable=0;points=[[0,0.5],[1,0.5]];portConstraint=eastwest;" vertex="1" parent="54">
                    <mxGeometry y="108" width="160" height="34" as="geometry"/>
                </mxCell>
                <mxCell id="61" value="sender_cource" style="text;strokeColor=none;fillColor=none;align=left;verticalAlign=top;spacingLeft=4;spacingRight=4;overflow=hidden;rotatable=0;points=[[0,0.5],[1,0.5]];portConstraint=eastwest;" vertex="1" parent="54">
                    <mxGeometry y="142" width="160" height="34" as="geometry"/>
                </mxCell>
                <mxCell id="59" value="is_listed" style="text;strokeColor=none;fillColor=none;align=left;verticalAlign=top;spacingLeft=4;spacingRight=4;overflow=hidden;rotatable=0;points=[[0,0.5],[1,0.5]];portConstraint=eastwest;" vertex="1" parent="54">
                    <mxGeometry y="176" width="160" height="34" as="geometry"/>
                </mxCell>
                <mxCell id="60" value="content" style="text;strokeColor=none;fillColor=none;align=left;verticalAlign=top;spacingLeft=4;spacingRight=4;overflow=hidden;rotatable=0;points=[[0,0.5],[1,0.5]];portConstraint=eastwest;" vertex="1" parent="54">
                    <mxGeometry y="210" width="160" height="34" as="geometry"/>
                </mxCell>
                <mxCell id="58" value="date_created" style="text;strokeColor=none;fillColor=none;align=left;verticalAlign=top;spacingLeft=4;spacingRight=4;overflow=hidden;rotatable=0;points=[[0,0.5],[1,0.5]];portConstraint=eastwest;" vertex="1" parent="54">
                    <mxGeometry y="244" width="160" height="34" as="geometry"/>
                </mxCell>
                <mxCell id="62" style="edgeStyle=none;html=1;exitX=0;exitY=0.5;exitDx=0;exitDy=0;entryX=1;entryY=0.5;entryDx=0;entryDy=0;" edge="1" parent="1" source="46" target="40">
                    <mxGeometry relative="1" as="geometry"/>
                </mxCell>
                <mxCell id="63" style="edgeStyle=none;html=1;exitX=0;exitY=0.5;exitDx=0;exitDy=0;entryX=1;entryY=0.5;entryDx=0;entryDy=0;" edge="1" parent="1" source="45" target="19">
                    <mxGeometry relative="1" as="geometry"/>
                </mxCell>
                <mxCell id="64" style="edgeStyle=none;html=1;exitX=1;exitY=0.5;exitDx=0;exitDy=0;entryX=0;entryY=0.5;entryDx=0;entryDy=0;" edge="1" parent="1" source="15" target="55">
                    <mxGeometry relative="1" as="geometry"/>
                </mxCell>
                <mxCell id="65" style="edgeStyle=none;html=1;exitX=0;exitY=0.5;exitDx=0;exitDy=0;entryX=1;entryY=0.5;entryDx=0;entryDy=0;" edge="1" parent="1" source="14" target="1YMcYzVdeeYM0YwtyNEZ-7">
                    <mxGeometry relative="1" as="geometry"/>
                </mxCell>
            </root>
        </mxGraphModel>
    </diagram>
</mxfile>